# xmcd CD database file
#
# Track frame offsets:
#	187
#	22762
#	36637
#
# Disc length: 755 seconds
#
# Revision: 0
# Processed by: cddbd v1.5PL3 Copyright (c) Steve Scherf et al.
# Submitted via: CDex 1.40Release
#
DISCID=1c02f103
DTITLE=J - BUT YOU SAID I'M USELESS
DYEAR=1997
DGENRE=Punk Rock
TTITLE0=BUT YOU SAID I'M USELESS
TTITLE1=PUNK FLOYD
TTITLE2=I HATE YOU
EXTD=YEAR: 1997 ID3G: 121
EXTT0=
EXTT1=
EXTT2=
PLAYORDER=
